<svg width="210" height="36" viewBox="0 0 210 36" fill="none" xmlns="http://www.w3.org/2000/svg">
<path fill-rule="evenodd" clip-rule="evenodd" d="M3.5107 6.3088C3.5107 5.00489 4.57872 3.94787 5.89619 3.94787H11.7567C13.5758 3.94787 13.9912 1.53105 12.4721 0.850682C12.2983 0.772872 12.1661 0.610531 12.1661 0.418767C12.1661 0.155722 12.4038 -0.0421476 12.6598 0.00772806L20.1866 1.47408L27.871 3.46078C29.5452 3.74206 30.7703 5.17765 30.7703 6.8584V9.92424C30.7703 10.1547 30.9891 10.3284 31.2176 10.3284C32.8143 10.3284 34.1087 11.8675 34.1087 13.766C34.1087 15.6645 32.8143 17.2035 31.2176 17.2035C30.9891 17.2035 30.7703 17.3772 30.7703 17.6077V20.6345C30.7703 22.5378 29.2113 24.0808 27.2882 24.0808L22.6506 24.4182C19.085 24.6776 15.5055 24.6815 11.9393 24.4298L6.99276 24.0808C5.06967 24.0808 3.5107 22.5378 3.5107 20.6345V17.2035C3.5107 17.0531 3.35468 16.9476 3.20744 16.9715C3.11163 16.9872 3.0065 16.9952 2.89117 16.9952C1.29442 16.9952 0 15.4561 0 13.5576C0 11.6591 1.29442 10.1201 2.89117 10.1201C2.92924 10.1201 2.9662 10.1209 3.00209 10.1227C3.24838 10.1346 3.5107 9.95215 3.5107 9.7034V6.3088ZM7.44719 7.38472C6.58678 7.38472 5.88927 8.07443 5.88927 8.92524V17.5522C5.88927 18.403 6.58678 19.0927 7.44719 19.0927H11.6021C11.6018 19.1098 11.6016 19.1269 11.6016 19.144C11.6016 21.2143 14.0197 22.8926 17.0024 22.8926C19.9852 22.8926 22.4032 21.2143 22.4032 19.144C22.4032 19.1269 22.403 19.1098 22.4027 19.0927H26.6615C27.5219 19.0927 28.2194 18.403 28.2194 17.5522V8.92524C28.2194 8.07443 27.5219 7.38472 26.6615 7.38472H20.3611C19.8511 7.38472 19.3734 7.63153 19.0822 8.0455L18.4048 9.00838C17.7657 9.91671 16.3955 9.88249 15.8037 8.94341L15.2787 8.11047C14.9942 7.65907 14.4944 7.38472 13.9565 7.38472H7.44719ZM11.6536 16.1143C13.231 16.1143 14.5098 14.8499 14.5098 13.29C14.5098 11.7302 13.231 10.4658 11.6536 10.4658C10.0761 10.4658 8.79739 11.7302 8.79739 13.29C8.79739 14.8499 10.0761 16.1143 11.6536 16.1143ZM25.7268 13.29C25.7268 14.8499 24.448 16.1143 22.8706 16.1143C21.2932 16.1143 20.0144 14.8499 20.0144 13.29C20.0144 11.7302 21.2932 10.4658 22.8706 10.4658C24.448 10.4658 25.7268 11.7302 25.7268 13.29Z" fill="url(#paint0_linear_303_126)"/>
<path d="M45.5967 23.4539C44.0053 23.4539 42.55 23.1703 41.2308 22.6031C39.9326 22.036 38.8751 21.2378 38.0585 20.2085L40.5398 17.6879C41.0424 18.4441 41.7124 19.0637 42.55 19.5469C43.3876 20.03 44.3822 20.2715 45.5339 20.2715C46.3506 20.2715 46.9997 20.156 47.4813 19.9249C47.9838 19.6729 48.2351 19.2843 48.2351 18.7591C48.2351 18.4231 48.12 18.1395 47.8896 17.9084C47.6593 17.6564 47.1986 17.4568 46.5076 17.3098L43.7436 16.7426C41.9218 16.3645 40.6236 15.7974 39.8488 15.0412C39.095 14.264 38.7181 13.2662 38.7181 12.0479C38.7181 11.1867 38.9693 10.378 39.4719 9.62179C39.9954 8.8656 40.7701 8.25644 41.7962 7.79432C42.8222 7.3112 44.0995 7.06963 45.6281 7.06963C47.1986 7.06963 48.5597 7.3217 49.7114 7.82583C50.884 8.30895 51.8053 9.03364 52.4754 9.99989L49.8998 12.5205C49.4392 11.7854 48.8319 11.2287 48.0781 10.8506C47.3452 10.4515 46.5704 10.252 45.7538 10.252C45.1675 10.252 44.6649 10.315 44.2461 10.441C43.8273 10.567 43.5132 10.7456 43.3038 10.9766C43.0944 11.1867 42.9897 11.4598 42.9897 11.7959C42.9897 12.1319 43.1363 12.426 43.4295 12.6781C43.7226 12.9091 44.2566 13.1087 45.0314 13.2767L48.2351 13.9384C49.7847 14.2535 50.8945 14.7891 51.5645 15.5453C52.2346 16.2805 52.5696 17.1732 52.5696 18.2235C52.5696 19.2318 52.2974 20.135 51.753 20.9332C51.2295 21.7104 50.4443 22.3301 49.3973 22.7922C48.3712 23.2333 47.1044 23.4539 45.5967 23.4539Z" fill="white"/>
<path d="M60.5884 7.06963C62.1798 7.06963 63.5723 7.39522 64.7658 8.04639C65.9803 8.69755 66.9226 9.6323 67.5927 10.8506C68.2837 12.0689 68.6292 13.5393 68.6292 15.2617C68.6292 16.9632 68.2837 18.4336 67.5927 19.6729C66.9226 20.8912 65.9803 21.8259 64.7658 22.4771C63.5723 23.1283 62.1798 23.4539 60.5884 23.4539C59.0179 23.4539 57.6254 23.1283 56.4109 22.4771C55.1964 21.8259 54.2437 20.8912 53.5527 19.6729C52.8826 18.4336 52.5475 16.9632 52.5475 15.2617C52.5475 13.5393 52.8826 12.0689 53.5527 10.8506C54.2437 9.6323 55.1964 8.69755 56.4109 8.04639C57.6254 7.39522 59.0179 7.06963 60.5884 7.06963ZM60.5884 10.2835C59.7927 10.2835 59.1121 10.4725 58.5468 10.8506C58.0023 11.2077 57.5835 11.7538 57.2904 12.489C56.9972 13.2242 56.8506 14.1485 56.8506 15.2617C56.8506 16.375 56.9972 17.2993 57.2904 18.0345C57.5835 18.7697 58.0023 19.3263 58.5468 19.7044C59.1121 20.0615 59.7927 20.24 60.5884 20.24C61.3631 20.24 62.0227 20.0615 62.5672 19.7044C63.1325 19.3263 63.5618 18.7697 63.855 18.0345C64.1481 17.2993 64.2947 16.375 64.2947 15.2617C64.2947 14.1485 64.1481 13.2242 63.855 12.489C63.5618 11.7538 63.1325 11.2077 62.5672 10.8506C62.0227 10.4725 61.3631 10.2835 60.5884 10.2835Z" fill="white"/>
<path d="M75.1822 23.4539C74.1353 23.4539 73.193 23.2648 72.3554 22.8867C71.5178 22.5086 70.8477 21.91 70.3452 21.0907C69.8636 20.2505 69.6228 19.1688 69.6228 17.8454V7.38472H73.9259V16.8056C73.9259 18.024 74.1771 18.8747 74.6797 19.3578C75.1822 19.8199 75.9047 20.051 76.8469 20.051C77.2867 20.051 77.7159 19.9775 78.1347 19.8304C78.5535 19.6624 78.92 19.4103 79.2341 19.0742C79.5691 18.7381 79.8308 18.3075 80.0193 17.7824C80.2078 17.2363 80.302 16.5956 80.302 15.8604V7.38472H84.6051V23.1388H80.7731L80.6161 20.3976C80.0926 21.4478 79.3702 22.225 78.4488 22.7292C77.5484 23.2123 76.4596 23.4539 75.1822 23.4539Z" fill="white"/>
<path d="M92.9023 23.4539C91.3109 23.4539 89.8556 23.1703 88.5364 22.6031C87.2381 22.036 86.1807 21.2378 85.3641 20.2085L87.8454 17.6879C88.348 18.4441 89.018 19.0637 89.8556 19.5469C90.6932 20.03 91.6878 20.2715 92.8395 20.2715C93.6562 20.2715 94.3053 20.156 94.7869 19.9249C95.2894 19.6729 95.5407 19.2843 95.5407 18.7591C95.5407 18.4231 95.4256 18.1395 95.1952 17.9084C94.9649 17.6564 94.5042 17.4568 93.8132 17.3098L91.0492 16.7426C89.2274 16.3645 87.9292 15.7974 87.1544 15.0412C86.4006 14.264 86.0237 13.2662 86.0237 12.0479C86.0237 11.1867 86.2749 10.378 86.7775 9.62179C87.301 8.8656 88.0757 8.25644 89.1018 7.79432C90.1278 7.3112 91.4051 7.06963 92.9337 7.06963C94.5042 7.06963 95.8653 7.3217 97.017 7.82583C98.1896 8.30895 99.1109 9.03364 99.781 9.99989L97.2054 12.5205C96.7447 11.7854 96.1375 11.2287 95.3837 10.8506C94.6508 10.4515 93.876 10.252 93.0594 10.252C92.4731 10.252 91.9705 10.315 91.5517 10.441C91.1329 10.567 90.8188 10.7456 90.6094 10.9766C90.4 11.1867 90.2953 11.4598 90.2953 11.7959C90.2953 12.1319 90.4419 12.426 90.7351 12.6781C91.0282 12.9091 91.5622 13.1087 92.337 13.2767L95.5407 13.9384C97.0903 14.2535 98.2001 14.7891 98.8701 15.5453C99.5402 16.2805 99.8752 17.1732 99.8752 18.2235C99.8752 19.2318 99.603 20.135 99.0586 20.9332C98.5351 21.7104 97.7499 22.3301 96.7029 22.7922C95.6768 23.2333 94.41 23.4539 92.9023 23.4539Z" fill="white"/>
<path d="M109.746 13.0877C109.746 12.1845 109.484 11.4808 108.96 10.9766C108.458 10.4725 107.788 10.2204 106.95 10.2204C106.175 10.2204 105.495 10.42 104.909 10.8191C104.322 11.2182 103.893 11.8799 103.621 12.8041L99.9459 11.6698C100.302 10.2835 101.077 9.17018 102.27 8.32996C103.485 7.48974 105.108 7.06963 107.139 7.06963C108.521 7.06963 109.725 7.29019 110.751 7.73131C111.777 8.15141 112.573 8.79208 113.138 9.6533C113.724 10.5145 114.017 11.5963 114.017 12.8986V19.2948C114.017 20.093 114.394 20.4921 115.148 20.4921C115.504 20.4921 115.839 20.4396 116.153 20.3346L115.902 23.0127C115.357 23.2858 114.677 23.4224 113.86 23.4224C113.127 23.4224 112.468 23.2963 111.882 23.0443C111.295 22.7922 110.835 22.4141 110.499 21.91C110.164 21.3848 109.997 20.7337 109.997 19.9565V19.8304L110.751 19.7044C110.625 20.5026 110.28 21.1853 109.714 21.7524C109.149 22.2986 108.458 22.7187 107.641 23.0127C106.846 23.3068 106.018 23.4539 105.16 23.4539C104.092 23.4539 103.171 23.2963 102.396 22.9812C101.621 22.6452 101.024 22.162 100.605 21.5319C100.187 20.9017 99.9773 20.1245 99.9773 19.2003C99.9773 18.024 100.354 17.0682 101.108 16.333C101.862 15.5768 102.94 15.0622 104.343 14.7891L110.248 13.5918L110.217 16.27L106.448 17.0262C105.736 17.1732 105.191 17.3728 104.814 17.6249C104.458 17.8559 104.28 18.2445 104.28 18.7907C104.28 19.3158 104.469 19.7149 104.846 19.988C105.244 20.261 105.715 20.3976 106.259 20.3976C106.699 20.3976 107.128 20.3451 107.547 20.24C107.966 20.135 108.343 19.967 108.678 19.7359C109.013 19.5048 109.275 19.1898 109.463 18.7907C109.651 18.3916 109.746 17.9084 109.746 17.3413V13.0877Z" fill="white"/>
<path d="M122.599 23.4539C121.008 23.4539 119.552 23.1703 118.233 22.6031C116.935 22.036 115.877 21.2378 115.061 20.2085L117.542 17.6879C118.045 18.4441 118.715 19.0637 119.552 19.5469C120.39 20.03 121.384 20.2715 122.536 20.2715C123.353 20.2715 124.002 20.156 124.484 19.9249C124.986 19.6729 125.237 19.2843 125.237 18.7591C125.237 18.4231 125.122 18.1395 124.892 17.9084C124.662 17.6564 124.201 17.4568 123.51 17.3098L120.746 16.7426C118.924 16.3645 117.626 15.7974 116.851 15.0412C116.097 14.264 115.72 13.2662 115.72 12.0479C115.72 11.1867 115.972 10.378 116.474 9.62179C116.998 8.8656 117.772 8.25644 118.798 7.79432C119.824 7.3112 121.102 7.06963 122.63 7.06963C124.201 7.06963 125.562 7.3217 126.714 7.82583C127.886 8.30895 128.808 9.03364 129.478 9.99989L126.902 12.5205C126.441 11.7854 125.834 11.2287 125.08 10.8506C124.347 10.4515 123.573 10.252 122.756 10.252C122.17 10.252 121.667 10.315 121.248 10.441C120.83 10.567 120.516 10.7456 120.306 10.9766C120.097 11.1867 119.992 11.4598 119.992 11.7959C119.992 12.1319 120.139 12.426 120.432 12.6781C120.725 12.9091 121.259 13.1087 122.034 13.2767L125.237 13.9384C126.787 14.2535 127.897 14.7891 128.567 15.5453C129.237 16.2805 129.572 17.1732 129.572 18.2235C129.572 19.2318 129.3 20.135 128.755 20.9332C128.232 21.7104 127.447 22.3301 126.4 22.7922C125.374 23.2333 124.107 23.4539 122.599 23.4539Z" fill="white"/>
<path d="M137.579 23.1388V7.38472H141.442L141.599 10.2204C142.123 9.17018 142.834 8.38247 143.735 7.85734C144.656 7.3322 145.672 7.06963 146.782 7.06963C147.912 7.06963 148.928 7.3322 149.828 7.85734C150.75 8.38247 151.441 9.15967 151.901 10.1889C152.236 9.49576 152.687 8.91811 153.252 8.45599C153.817 7.99387 154.445 7.64728 155.137 7.41622C155.828 7.18516 156.529 7.06963 157.241 7.06963C158.267 7.06963 159.199 7.27969 160.036 7.6998C160.895 8.11991 161.575 8.75007 162.078 9.59029C162.581 10.4305 162.832 11.5018 162.832 12.8041V23.1388H158.529V13.6548C158.529 12.4995 158.277 11.6803 157.775 11.1972C157.272 10.7141 156.623 10.4725 155.828 10.4725C155.199 10.4725 154.613 10.6301 154.069 10.9451C153.545 11.2602 153.126 11.7328 152.812 12.363C152.519 12.9722 152.372 13.7389 152.372 14.6631V23.1388H148.069V13.6548C148.069 12.4995 147.808 11.6803 147.284 11.1972C146.782 10.7141 146.132 10.4725 145.337 10.4725C144.792 10.4725 144.248 10.6195 143.703 10.9136C143.18 11.2077 142.74 11.6698 142.384 12.3C142.049 12.9301 141.882 13.7599 141.882 14.7891V23.1388H137.579Z" fill="white"/>
<path d="M166.925 5.11613C166.024 5.11613 165.354 4.92708 164.915 4.54898C164.475 4.14988 164.255 3.57223 164.255 2.81604C164.255 2.03884 164.475 1.46119 164.915 1.08309C165.354 0.683987 166.024 0.484436 166.925 0.484436C167.825 0.484436 168.495 0.683987 168.935 1.08309C169.375 1.46119 169.595 2.03884 169.595 2.81604C169.595 3.57223 169.375 4.14988 168.935 4.54898C168.495 4.92708 167.825 5.11613 166.925 5.11613ZM169.061 7.38472V23.1388H164.758V7.38472H169.061Z" fill="white"/>
<path d="M177.046 23.4539C175.748 23.4539 174.585 23.1283 173.559 22.4771C172.554 21.8259 171.759 20.8912 171.172 19.6729C170.607 18.4546 170.324 16.9947 170.324 15.2933C170.324 13.5498 170.628 12.0689 171.235 10.8506C171.842 9.61129 172.659 8.67655 173.685 8.04639C174.732 7.39522 175.905 7.06963 177.203 7.06963C178.585 7.06963 179.726 7.46874 180.627 8.26694C181.527 9.06515 182.113 10.0944 182.385 11.3547L181.977 11.8589V0.484436H186.28V23.1388H182.417L182.134 18.3495L182.668 18.6016C182.522 19.5889 182.187 20.4501 181.663 21.1853C181.14 21.8995 180.48 22.4561 179.684 22.8552C178.889 23.2543 178.009 23.4539 177.046 23.4539ZM178.302 20.1455C179.056 20.1455 179.705 19.9565 180.25 19.5784C180.794 19.1793 181.213 18.6016 181.506 17.8454C181.82 17.0892 181.977 16.186 181.977 15.1357C181.977 14.1275 181.831 13.2767 181.537 12.5836C181.244 11.8694 180.825 11.3232 180.281 10.9451C179.737 10.567 179.098 10.378 178.365 10.378C177.192 10.378 176.271 10.7981 175.601 11.6383C174.952 12.4575 174.627 13.6653 174.627 15.2617C174.627 16.8582 174.952 18.0765 175.601 18.9167C176.25 19.7359 177.151 20.1455 178.302 20.1455Z" fill="white"/>
<path d="M190.456 5.11613C189.556 5.11613 188.886 4.92708 188.446 4.54898C188.006 4.14988 187.786 3.57223 187.786 2.81604C187.786 2.03884 188.006 1.46119 188.446 1.08309C188.886 0.683987 189.556 0.484436 190.456 0.484436C191.357 0.484436 192.027 0.683987 192.466 1.08309C192.906 1.46119 193.126 2.03884 193.126 2.81604C193.126 3.57223 192.906 4.14988 192.466 4.54898C192.027 4.92708 191.357 5.11613 190.456 5.11613ZM192.592 7.38472V23.1388H188.289V7.38472H192.592Z" fill="white"/>
<path d="M203.592 13.0877C203.592 12.1845 203.331 11.4808 202.807 10.9766C202.305 10.4725 201.635 10.2204 200.797 10.2204C200.022 10.2204 199.342 10.42 198.755 10.8191C198.169 11.2182 197.74 11.8799 197.468 12.8041L193.793 11.6698C194.149 10.2835 194.923 9.17018 196.117 8.32996C197.332 7.48974 198.954 7.06963 200.985 7.06963C202.368 7.06963 203.572 7.29019 204.598 7.73131C205.624 8.15141 206.419 8.79208 206.985 9.6533C207.571 10.5145 207.864 11.5963 207.864 12.8986V19.2948C207.864 20.093 208.241 20.4921 208.995 20.4921C209.351 20.4921 209.686 20.4396 210 20.3346L209.749 23.0127C209.204 23.2858 208.524 23.4224 207.707 23.4224C206.974 23.4224 206.315 23.2963 205.728 23.0443C205.142 22.7922 204.681 22.4141 204.346 21.91C204.011 21.3848 203.844 20.7337 203.844 19.9565V19.8304L204.598 19.7044C204.472 20.5026 204.126 21.1853 203.561 21.7524C202.996 22.2986 202.305 22.7187 201.488 23.0127C200.692 23.3068 199.865 23.4539 199.007 23.4539C197.939 23.4539 197.017 23.2963 196.243 22.9812C195.468 22.6452 194.871 22.162 194.452 21.5319C194.034 20.9017 193.824 20.1245 193.824 19.2003C193.824 18.024 194.201 17.0682 194.955 16.333C195.709 15.5768 196.787 15.0622 198.19 14.7891L204.095 13.5918L204.064 16.27L200.294 17.0262C199.583 17.1732 199.038 17.3728 198.661 17.6249C198.305 17.8559 198.127 18.2445 198.127 18.7907C198.127 19.3158 198.316 19.7149 198.693 19.988C199.09 20.261 199.562 20.3976 200.106 20.3976C200.546 20.3976 200.975 20.3451 201.394 20.24C201.813 20.135 202.19 19.967 202.525 19.7359C202.86 19.5048 203.121 19.1898 203.31 18.7907C203.498 18.3916 203.592 17.9084 203.592 17.3413V13.0877Z" fill="white"/>
<path d="M49.1678 35.939L50.7349 31.6657H52.2791L53.8461 35.939H52.5606L52.2791 35.0538H50.6816L50.4002 35.939H49.1678ZM50.9479 34.1838H52.0281L51.488 32.5661L50.9479 34.1838Z" fill="white"/>
<path d="M58.5434 36C58.1377 36 57.7802 35.9135 57.4708 35.7406C57.1615 35.5676 56.9206 35.3183 56.7481 34.9927C56.5757 34.6621 56.4895 34.2653 56.4895 33.8023C56.4895 33.3394 56.5783 32.9451 56.7557 32.6195C56.9383 32.2889 57.197 32.037 57.5317 31.8641C57.8714 31.6911 58.2746 31.6046 58.7412 31.6046C59.2432 31.6046 59.6642 31.7089 60.0039 31.9175C60.3437 32.1261 60.577 32.4313 60.7038 32.8332L59.5855 33.1689C59.5298 32.94 59.4283 32.7823 59.2813 32.6958C59.1393 32.6043 58.9719 32.5585 58.7792 32.5585C58.5814 32.5585 58.4065 32.6068 58.2543 32.7035C58.1022 32.795 57.983 32.9324 57.8968 33.1155C57.8106 33.2987 57.7675 33.5276 57.7675 33.8023C57.7675 34.0821 57.808 34.3187 57.8892 34.512C57.9703 34.7002 58.0895 34.8427 58.2467 34.9393C58.4039 35.0309 58.6017 35.0767 58.8401 35.0767C58.9618 35.0767 59.0733 35.0614 59.1748 35.0309C59.2762 34.9953 59.3599 34.9495 59.4258 34.8935C59.4968 34.8325 59.55 34.7613 59.5855 34.6799C59.6261 34.5985 59.6464 34.5094 59.6464 34.4128V34.3517H58.7031V33.6573H60.6962V35.939H59.867L59.829 35.3209C59.7225 35.5142 59.5627 35.677 59.3497 35.8092C59.1418 35.9364 58.873 36 58.5434 36Z" fill="white"/>
<path d="M64.0705 35.939V31.6657H67.6762V32.5737H65.3408V33.3521H67.1589V34.222H65.3408V35.0309H67.7218V35.939H64.0705ZM67.2197 31.1849H66.3221L65.8277 30.4829L65.3332 31.1849H64.4356L65.1963 29.9411H66.4591L67.2197 31.1849Z" fill="white"/>
<path d="M75.1693 31.6657V35.939H73.7163L72.4612 33.6955L72.1341 33.024H72.1189L72.1645 33.9702V35.939H70.9702V31.6657H72.4232L73.6783 33.9015L74.0054 34.5807H74.0282L73.9826 33.6344V31.6657H75.1693Z" fill="white"/>
<path d="M82.6578 34.657C82.6172 34.9266 82.5107 35.1631 82.3383 35.3666C82.1659 35.565 81.9377 35.7202 81.6537 35.8321C81.3697 35.944 81.0375 36 80.6572 36C80.2008 36 79.8103 35.9135 79.4857 35.7406C79.1611 35.5676 78.9101 35.3183 78.7326 34.9927C78.5602 34.6621 78.474 34.2653 78.474 33.8023C78.474 33.3394 78.5627 32.9451 78.7402 32.6195C78.9177 32.2889 79.1713 32.037 79.5009 31.8641C79.8356 31.6911 80.2363 31.6046 80.7028 31.6046C81.0223 31.6046 81.3164 31.6555 81.5852 31.7572C81.854 31.8539 82.0797 32.0014 82.2623 32.1998C82.4499 32.3982 82.5691 32.645 82.6198 32.94L81.4559 33.2834C81.4255 33.024 81.3418 32.8459 81.2049 32.7492C81.068 32.6475 80.8955 32.5966 80.6876 32.5966C80.505 32.5966 80.3428 32.6399 80.2008 32.7264C80.0638 32.8128 79.9573 32.9476 79.8813 33.1308C79.8052 33.3088 79.7672 33.5327 79.7672 33.8023C79.7672 34.0719 79.8052 34.2983 79.8813 34.4815C79.9573 34.6595 80.0638 34.7918 80.2008 34.8783C80.3428 34.9647 80.5076 35.008 80.6952 35.008C80.9437 35.008 81.1339 34.9546 81.2657 34.8477C81.4027 34.7409 81.4838 34.573 81.5092 34.3441L82.6578 34.657Z" fill="white"/>
<path d="M87.0807 31.6657V35.939H85.7875V31.6657H87.0807Z" fill="white"/>
<path d="M89.987 35.939L91.5541 31.6657H93.0983L94.6653 35.939H93.3797L93.0983 35.0538H91.5008L91.2194 35.939H89.987ZM91.7671 34.1838H92.8472L92.3072 32.5661L91.7671 34.1838Z" fill="white"/>
<path d="M102.364 35.939V31.6657H104.273C104.993 31.6657 105.546 31.8539 105.932 32.2304C106.317 32.6017 106.51 33.1257 106.51 33.8023C106.51 34.4789 106.317 35.0054 105.932 35.3819C105.546 35.7533 104.993 35.939 104.273 35.939H102.364ZM103.634 34.9698H104.273C104.598 34.9698 104.834 34.8706 104.981 34.6722C105.133 34.4738 105.209 34.1839 105.209 33.8023C105.209 33.4157 105.133 33.1257 104.981 32.9324C104.834 32.734 104.598 32.6348 104.273 32.6348H103.634V34.9698Z" fill="white"/>
<path d="M109.806 35.939V31.6657H113.412V32.5737H111.076V33.3521H112.894V34.222H111.076V35.0309H113.457V35.939H109.806Z" fill="white"/>
<path d="M123.051 36C122.6 36 122.212 35.9466 121.887 35.8398C121.568 35.7278 121.284 35.5574 121.035 35.3285L121.583 34.4891C121.765 34.6875 121.976 34.835 122.214 34.9317C122.458 35.0283 122.737 35.0767 123.051 35.0767C123.198 35.0767 123.32 35.0639 123.416 35.0385C123.518 35.008 123.594 34.9673 123.644 34.9164C123.695 34.8655 123.72 34.802 123.72 34.7256C123.72 34.6544 123.698 34.5959 123.652 34.5501C123.606 34.5044 123.54 34.4662 123.454 34.4357C123.373 34.4051 123.279 34.3797 123.173 34.3594L122.458 34.2449C122.189 34.2042 121.953 34.1355 121.75 34.0389C121.547 33.9422 121.39 33.8099 121.279 33.6421C121.172 33.4691 121.119 33.2605 121.119 33.0163C121.119 32.7314 121.197 32.4847 121.355 32.2761C121.512 32.0625 121.737 31.8971 122.032 31.7801C122.326 31.6631 122.671 31.6046 123.066 31.6046C123.365 31.6046 123.629 31.6301 123.857 31.6809C124.085 31.7267 124.293 31.8005 124.481 31.9022C124.669 32.004 124.846 32.1337 125.014 32.2914L124.458 33.1155C124.306 32.968 124.162 32.851 124.025 32.7645C123.893 32.678 123.751 32.617 123.599 32.5814C123.452 32.5458 123.279 32.528 123.081 32.528C122.858 32.528 122.691 32.5686 122.579 32.65C122.468 32.7314 122.412 32.8256 122.412 32.9324C122.412 33.0036 122.44 33.0621 122.496 33.1079C122.551 33.1537 122.627 33.1893 122.724 33.2147C122.82 33.2402 122.932 33.2656 123.059 33.291L123.789 33.4208C124.042 33.4615 124.26 33.5301 124.443 33.6268C124.626 33.7184 124.765 33.8405 124.861 33.9931C124.963 34.1457 125.014 34.3365 125.014 34.5654C125.014 34.8554 124.932 35.1097 124.77 35.3285C124.608 35.5421 124.38 35.7075 124.085 35.8245C123.796 35.9415 123.452 36 123.051 36Z" fill="white"/>
<path d="M130.255 36C129.793 36 129.395 35.9135 129.061 35.7406C128.731 35.5625 128.477 35.3107 128.3 34.9851C128.122 34.6544 128.034 34.2602 128.034 33.8023C128.034 33.3445 128.122 32.9527 128.3 32.6272C128.477 32.2965 128.731 32.0447 129.061 31.8717C129.395 31.6936 129.793 31.6046 130.255 31.6046C130.716 31.6046 131.115 31.6936 131.449 31.8717C131.784 32.0447 132.04 32.2965 132.218 32.6272C132.395 32.9527 132.484 33.3445 132.484 33.8023C132.484 34.2602 132.395 34.6544 132.218 34.9851C132.04 35.3107 131.784 35.5625 131.449 35.7406C131.115 35.9135 130.716 36 130.255 36ZM130.255 35.008C130.453 35.008 130.62 34.9647 130.757 34.8783C130.899 34.7918 131.006 34.6595 131.077 34.4815C131.153 34.2983 131.191 34.0719 131.191 33.8023C131.191 33.5276 131.153 33.3012 131.077 33.1232C131.006 32.9451 130.899 32.8128 130.757 32.7264C130.62 32.6399 130.453 32.5966 130.255 32.5966C130.062 32.5966 129.895 32.6399 129.753 32.7264C129.616 32.8128 129.509 32.9451 129.433 33.1232C129.362 33.3012 129.327 33.5276 129.327 33.8023C129.327 34.0719 129.362 34.2983 129.433 34.4815C129.509 34.6595 129.616 34.7918 129.753 34.8783C129.895 34.9647 130.062 35.008 130.255 35.008Z" fill="white"/>
<path d="M139.749 34.657C139.708 34.9266 139.602 35.1631 139.429 35.3666C139.257 35.565 139.029 35.7202 138.745 35.8321C138.461 35.944 138.129 36 137.748 36C137.292 36 136.901 35.9135 136.577 35.7406C136.252 35.5676 136.001 35.3183 135.824 34.9927C135.651 34.6621 135.565 34.2653 135.565 33.8023C135.565 33.3394 135.654 32.9451 135.831 32.6195C136.009 32.2889 136.262 32.037 136.592 31.8641C136.927 31.6911 137.327 31.6046 137.794 31.6046C138.113 31.6046 138.407 31.6555 138.676 31.7572C138.945 31.8539 139.171 32.0014 139.353 32.1998C139.541 32.3982 139.66 32.645 139.711 32.94L138.547 33.2834C138.516 33.024 138.433 32.8459 138.296 32.7492C138.159 32.6475 137.987 32.5966 137.779 32.5966C137.596 32.5966 137.434 32.6399 137.292 32.7264C137.155 32.8128 137.048 32.9476 136.972 33.1308C136.896 33.3088 136.858 33.5327 136.858 33.8023C136.858 34.0719 136.896 34.2983 136.972 34.4815C137.048 34.6595 137.155 34.7918 137.292 34.8783C137.434 34.9647 137.599 35.008 137.786 35.008C138.035 35.008 138.225 34.9546 138.357 34.8477C138.494 34.7409 138.575 34.573 138.6 34.3441L139.749 34.657Z" fill="white"/>
<path d="M144.172 31.6657V35.939H142.878V31.6657H144.172Z" fill="white"/>
<path d="M147.078 35.939L148.645 31.6657H150.189L151.756 35.939H150.471L150.189 35.0538H148.592L148.31 35.939H147.078ZM148.858 34.1838H149.938L149.398 32.5661L148.858 34.1838Z" fill="white"/>
<path d="M156.099 34.9622H158.336V35.939H154.806V31.6657H156.099V34.9622Z" fill="white"/>
<path d="M166.34 35.939V31.6657H168.105L168.759 33.6802L169.01 34.5349H169.033L169.276 33.6802L169.923 31.6657H171.68V35.939H170.508V34.3365L170.584 32.8179H170.569L169.497 35.939H168.531L167.45 32.8179H167.443L167.511 34.3365V35.939H166.34Z" fill="white"/>
<path d="M175.208 35.939V31.6657H178.814V32.5737H176.479V33.3521H178.297V34.222H176.479V35.0309H178.859V35.939H175.208Z" fill="white"/>
<path d="M182.108 35.939V31.6657H184.017C184.737 31.6657 185.29 31.8539 185.676 32.2304C186.061 32.6017 186.254 33.1257 186.254 33.8023C186.254 34.4789 186.061 35.0054 185.676 35.3819C185.29 35.7533 184.737 35.939 184.017 35.939H182.108ZM183.378 34.9698H184.017C184.342 34.9698 184.578 34.8706 184.725 34.6722C184.877 34.4738 184.953 34.1839 184.953 33.8023C184.953 33.4157 184.877 33.1257 184.725 32.9324C184.578 32.734 184.342 32.6348 184.017 32.6348H183.378V34.9698Z" fill="white"/>
<path d="M190.843 31.6657V35.939H189.55V31.6657H190.843Z" fill="white"/>
<path d="M193.749 35.939L195.317 31.6657H196.861L198.428 35.939H197.142L196.861 35.0538H195.263L194.982 35.939H193.749ZM195.53 34.1838H196.61L196.07 32.5661L195.53 34.1838Z" fill="white"/>
<defs>
<linearGradient id="paint0_linear_303_126" x1="105" y1="0" x2="105" y2="36" gradientUnits="userSpaceOnUse">
<stop stop-color="#5500E0"/>
<stop offset="1" stop-color="#B689FF"/>
</linearGradient>
</defs>
</svg>
