<?xml version="1.0" encoding="UTF-8" ?>
<!DOCTYPE svg PUBLIC "-//W3C//DTD SVG 1.1//EN" "http://www.w3.org/Graphics/SVG/1.1/DTD/svg11.dtd">
<svg width="864pt" height="150pt" viewBox="0 0 864 150" version="1.1" xmlns="http://www.w3.org/2000/svg">
<g id="#ffffffff">
<path fill="#ffffff" opacity="1.00" d=" M 50.43 25.64 C 51.03 25.52 52.22 25.26 52.82 25.13 L 51.99 26.44 C 54.51 26.45 57.03 26.50 59.55 26.58 L 59.14 27.50 C 60.94 27.50 62.74 27.54 64.54 27.57 L 64.17 28.54 C 65.75 28.49 67.33 28.46 68.91 28.42 L 67.96 29.50 C 69.94 29.46 71.92 29.44 73.90 29.40 L 73.03 30.52 C 74.99 30.46 76.95 30.43 78.92 30.39 L 78.01 31.51 C 79.94 31.46 81.87 31.42 83.80 31.38 C 83.63 31.67 83.28 32.24 83.10 32.53 C 84.71 32.48 86.31 32.44 87.92 32.41 L 86.99 33.49 C 88.59 33.47 90.21 33.45 91.82 33.43 L 91.05 34.50 C 92.63 34.47 94.21 34.44 95.79 34.41 L 95.08 35.49 C 96.64 35.48 98.21 35.46 99.77 35.46 L 99.05 36.47 C 101.85 36.17 104.69 36.32 107.27 37.57 L 104.54 38.51 C 106.64 38.46 108.75 38.40 110.86 38.33 L 110.04 39.43 C 111.88 39.44 113.72 39.48 115.56 39.52 L 115.44 40.88 C 115.94 40.66 116.93 40.23 117.43 40.01 L 117.36 41.72 C 117.86 41.58 118.87 41.30 119.37 41.17 L 119.47 41.94 C 120.40 42.77 121.27 43.66 122.07 44.63 L 122.21 44.16 C 123.08 46.12 124.56 47.96 124.59 50.19 C 124.71 55.36 124.64 60.55 124.61 65.72 L 125.97 65.69 C 125.76 66.10 125.34 66.93 125.13 67.34 C 126.94 67.36 128.75 67.42 130.57 67.47 L 130.39 68.04 C 133.68 68.58 135.56 71.46 137.38 73.94 C 138.90 77.82 139.09 82.08 138.06 86.11 C 136.70 89.55 134.33 92.48 131.02 94.19 C 129.13 94.46 127.23 94.63 125.34 94.78 C 125.48 95.15 125.75 95.88 125.89 96.25 L 124.71 96.39 C 124.71 97.43 124.71 99.49 124.71 100.53 L 125.33 100.44 C 125.15 106.13 126.21 112.57 122.31 117.34 C 119.05 121.96 113.03 122.93 107.76 122.89 C 83.23 125.27 58.45 125.59 33.93 122.90 C 31.28 122.77 28.63 122.80 26.00 122.47 C 19.92 121.46 14.73 116.11 14.50 109.84 C 14.32 104.47 14.49 99.09 14.46 93.72 C 8.35 94.89 1.88 90.60 1.08 84.36 L 0.71 84.63 C 0.54 83.58 0.18 81.48 0.00 80.44 L 0.00 82.28 C 0.22 79.81 0.54 77.35 0.95 74.90 C 2.19 72.15 3.76 69.43 6.52 67.95 L 6.71 67.17 C 6.98 67.22 7.54 67.33 7.82 67.39 C 9.87 66.26 12.22 66.42 14.47 66.36 C 14.87 59.66 13.68 52.79 15.51 46.24 L 16.79 46.67 C 16.62 46.15 16.27 45.11 16.10 44.59 L 17.59 44.79 L 17.24 43.67 C 18.71 42.97 20.24 42.40 21.87 42.20 L 21.22 41.44 C 30.96 41.43 40.70 41.29 50.44 41.51 C 50.65 40.99 51.07 39.93 51.28 39.40 L 52.04 49.09 L 52.58 39.69 C 54.31 37.47 55.98 35.08 55.67 32.08 L 54.04 32.63 C 54.25 32.10 54.66 31.03 54.87 30.49 L 53.07 30.32 C 53.29 29.87 53.71 28.97 53.92 28.52 C 53.05 28.50 51.32 28.47 50.46 28.45 C 50.45 27.52 50.44 26.58 50.43 25.64 M 28.78 54.65 C 25.19 56.31 21.18 56.75 16.74 55.98 L 26.84 56.64 C 26.22 56.88 24.96 57.36 24.34 57.60 L 24.78 58.93 L 23.58 58.08 C 23.75 70.80 23.67 83.52 23.73 96.23 C 23.62 98.16 24.99 99.70 25.76 101.35 C 27.16 101.87 28.53 102.64 30.07 102.62 C 35.63 102.63 41.20 102.69 46.76 102.54 L 46.47 103.42 L 47.18 103.52 C 47.35 107.54 50.00 110.75 52.91 113.26 C 55.41 114.82 58.08 116.08 60.83 117.16 C 62.55 117.36 64.25 117.70 65.92 118.19 C 74.91 118.76 85.09 116.21 90.26 108.21 C 90.83 106.36 91.38 104.51 91.61 102.58 C 97.39 102.64 103.18 102.66 108.97 102.61 C 110.51 102.64 111.87 101.85 113.26 101.31 C 113.74 100.36 114.23 99.42 114.71 98.47 L 115.32 98.59 C 115.25 85.25 115.28 71.91 115.43 58.58 C 114.87 58.35 113.75 57.88 113.19 57.65 L 122.70 56.97 C 120.19 56.85 115.16 56.61 112.65 56.49 L 112.51 55.29 L 111.05 55.80 L 111.96 54.57 C 101.37 54.66 90.78 54.67 80.19 54.57 L 80.46 55.94 C 80.05 55.77 79.23 55.44 78.82 55.28 C 78.69 56.87 77.84 57.69 76.28 57.74 C 76.45 58.14 76.79 58.95 76.96 59.35 L 75.82 59.36 C 75.70 60.79 75.00 61.57 73.72 61.71 C 73.22 65.00 68.86 63.22 66.60 63.59 L 66.61 62.47 L 65.34 62.62 L 65.65 61.33 L 64.76 61.68 C 64.19 60.63 63.73 59.54 63.38 58.40 L 62.73 58.64 C 62.15 57.53 61.65 56.39 61.22 55.22 C 60.78 55.45 59.90 55.90 59.47 56.13 L 59.83 54.58 C 49.48 54.71 39.13 54.57 28.78 54.65 Z" />
<path fill="#ffffff" opacity="1.00" d=" M 681.36 27.59 C 685.40 27.26 689.55 27.16 693.39 28.68 L 693.35 29.65 L 694.61 29.45 L 694.44 30.78 L 695.94 30.66 C 695.73 31.14 695.30 32.10 695.09 32.58 L 696.50 32.35 C 696.63 35.09 696.64 37.83 696.45 40.56 L 695.15 40.48 C 695.33 40.93 695.67 41.85 695.85 42.30 L 694.47 42.25 L 694.59 43.31 C 693.24 44.02 691.87 44.79 690.29 44.63 L 690.58 45.37 C 687.82 45.45 685.07 45.48 682.33 45.43 C 682.43 45.22 682.64 44.81 682.74 44.60 C 681.40 44.78 680.20 44.53 679.13 43.82 C 677.95 43.47 677.30 42.62 677.20 41.28 L 676.41 41.59 C 676.55 38.00 675.93 34.30 676.82 30.78 C 677.20 30.66 677.97 30.42 678.35 30.30 C 678.03 28.19 680.63 28.65 681.80 28.37 L 681.36 27.59 Z" />
<path fill="#ffffff" opacity="1.00" d=" M 748.28 27.28 C 753.75 27.47 759.24 27.47 764.72 27.28 C 764.55 57.80 764.67 88.33 764.85 118.85 C 759.72 118.68 754.59 118.76 749.47 118.79 C 749.36 114.99 749.15 111.19 749.33 107.39 C 748.85 107.44 747.91 107.53 747.43 107.57 C 747.50 107.91 747.65 108.60 747.72 108.94 C 744.38 113.32 740.40 117.59 734.87 119.03 C 729.06 120.19 722.59 120.51 717.08 118.00 C 710.53 115.34 704.85 109.39 703.20 102.47 L 702.65 102.56 C 701.85 99.89 701.09 97.17 701.28 94.35 L 700.61 94.58 C 700.31 89.56 700.29 84.53 700.66 79.52 L 701.33 79.60 C 701.25 77.75 701.48 75.92 702.04 74.17 C 702.48 73.10 702.96 72.04 703.46 70.99 C 703.41 70.67 703.30 70.05 703.24 69.73 L 704.61 69.51 C 704.52 69.06 704.35 68.15 704.26 67.70 L 705.26 67.58 C 705.65 66.45 706.12 65.35 706.67 64.27 L 707.14 64.60 C 708.26 62.23 710.18 60.27 712.58 59.16 L 712.37 58.79 C 713.31 58.30 714.23 57.77 715.13 57.20 C 716.28 56.68 717.50 56.35 718.78 56.21 L 718.51 55.02 C 718.87 55.14 719.59 55.40 719.96 55.52 C 724.43 53.27 729.78 54.69 734.63 54.51 L 734.21 55.32 C 735.78 55.04 737.01 55.46 737.91 56.60 C 738.17 56.53 738.69 56.38 738.95 56.31 C 739.96 57.21 741.22 57.92 741.87 59.18 C 743.34 59.84 744.50 60.99 744.82 62.64 L 745.93 62.54 C 745.78 63.06 745.49 64.10 745.35 64.62 C 745.85 64.56 746.85 64.46 747.35 64.40 L 748.07 72.80 C 748.51 57.64 748.44 42.45 748.28 27.28 M 726.20 67.57 L 726.70 68.30 C 725.70 68.71 724.71 69.14 723.73 69.57 C 723.40 69.88 722.75 70.48 722.43 70.78 L 722.46 71.53 L 721.71 71.47 C 721.46 71.81 720.96 72.48 720.70 72.81 C 720.09 74.17 719.46 75.53 718.60 76.74 C 718.55 77.45 718.46 78.88 718.42 79.59 L 717.65 79.32 C 717.43 84.43 717.46 89.54 717.68 94.65 L 718.41 94.40 C 718.48 95.11 718.62 96.55 718.69 97.26 C 719.50 98.49 720.18 99.82 720.69 101.21 C 721.80 102.61 723.03 103.94 724.64 104.78 L 724.50 105.61 C 724.94 105.50 725.83 105.28 726.28 105.17 L 726.43 106.27 C 727.93 106.38 729.44 106.62 730.85 107.22 C 731.79 107.25 733.67 107.31 734.61 107.34 L 734.51 106.72 C 736.18 106.72 737.83 106.33 739.29 105.48 L 740.40 105.66 L 740.40 104.43 L 741.23 104.62 C 743.19 102.62 745.09 100.39 745.67 97.56 L 746.18 97.61 C 746.37 96.40 746.72 95.23 747.21 94.10 C 747.46 91.89 747.62 89.66 747.66 87.43 L 748.36 87.62 C 748.37 86.78 748.40 85.11 748.41 84.28 L 747.63 84.84 C 747.54 82.66 747.39 80.49 747.35 78.32 L 746.51 78.55 C 746.47 77.71 746.39 76.04 746.35 75.20 L 744.94 75.45 C 745.15 74.97 745.59 74.01 745.80 73.53 L 744.83 73.55 C 743.91 72.18 742.69 70.99 742.18 69.39 C 741.82 69.48 741.09 69.67 740.73 69.76 L 740.47 68.36 C 740.05 68.42 739.20 68.54 738.78 68.61 L 738.66 67.58 C 737.87 67.54 736.31 67.45 735.53 67.41 L 735.68 66.60 C 733.51 66.67 731.36 66.66 729.21 66.60 L 729.65 67.53 C 728.79 67.54 727.06 67.56 726.20 67.57 Z" />
<path fill="#ffffff" opacity="1.00" d=" M 777.71 28.44 C 777.63 28.22 777.47 27.79 777.39 27.57 C 780.50 27.38 783.62 27.38 786.75 27.52 C 786.61 27.74 786.35 28.19 786.21 28.41 C 787.65 28.16 788.87 28.53 789.87 29.52 L 790.66 29.46 L 790.38 30.73 L 791.90 30.67 C 791.70 31.16 791.31 32.15 791.11 32.64 L 792.41 32.32 C 792.62 35.07 792.61 37.83 792.41 40.58 L 791.24 40.41 C 791.33 40.76 791.52 41.45 791.62 41.80 C 791.20 42.27 790.36 43.19 789.95 43.65 C 789.54 43.59 788.72 43.45 788.31 43.38 L 788.52 44.96 C 788.02 44.78 787.01 44.40 786.51 44.21 L 786.46 45.36 C 783.34 45.17 779.75 46.35 777.00 44.44 C 776.65 44.54 775.94 44.74 775.59 44.84 L 775.67 43.75 C 774.09 43.69 773.27 42.87 773.19 41.27 L 772.04 41.48 C 772.24 40.96 772.64 39.92 772.84 39.40 L 771.62 39.64 C 771.57 37.57 771.57 35.50 771.61 33.42 L 772.59 33.66 C 771.98 31.18 774.83 27.86 777.71 28.44 Z" />
<path fill="#ffffff" opacity="1.00" d=" M 182.38 54.65 C 188.79 54.22 195.24 54.20 201.65 54.65 L 201.23 55.41 C 202.68 55.43 204.14 55.48 205.59 55.54 L 205.28 56.31 C 207.04 56.45 208.69 57.13 210.37 57.64 L 210.48 58.26 C 213.44 59.29 216.56 61.37 217.77 64.33 C 218.31 64.51 219.40 64.86 219.94 65.04 C 216.52 68.35 213.51 72.21 209.54 74.88 C 209.46 75.25 209.31 75.99 209.24 76.36 C 209.02 75.62 208.58 74.14 208.37 73.40 L 207.41 73.57 L 207.62 72.45 L 206.49 72.47 L 206.51 71.29 L 205.52 71.72 L 205.52 70.51 L 204.21 70.57 L 204.65 69.37 C 204.17 69.46 203.19 69.64 202.71 69.73 L 202.50 68.37 C 202.06 68.46 201.18 68.65 200.74 68.74 L 200.41 67.27 C 199.90 67.45 198.89 67.80 198.38 67.98 L 198.78 66.65 C 194.62 66.48 190.45 66.38 186.29 66.63 L 186.45 67.32 C 185.07 67.65 183.74 68.16 182.41 68.64 L 182.56 69.66 L 181.23 69.47 C 181.38 69.92 181.70 70.81 181.85 71.26 L 180.57 71.35 C 180.78 72.17 181.20 73.81 181.40 74.62 C 181.91 75.45 182.33 76.32 182.68 77.22 C 184.32 77.65 185.95 78.15 187.61 78.54 L 187.30 79.33 C 189.49 79.36 191.78 79.27 193.82 80.22 C 195.52 80.44 197.26 80.56 198.85 81.26 C 200.09 81.40 201.33 81.52 202.59 81.64 L 202.34 82.34 C 203.76 82.39 205.19 82.45 206.62 82.52 L 206.25 83.22 C 207.74 83.11 208.99 83.55 209.99 84.55 C 210.31 84.45 210.93 84.25 211.24 84.15 L 211.45 85.15 C 212.54 85.61 213.61 86.11 214.66 86.65 L 214.43 87.28 C 214.75 87.61 215.40 88.26 215.72 88.58 L 216.33 88.31 C 216.99 89.31 217.49 90.39 217.83 91.53 C 218.15 91.59 218.78 91.70 219.10 91.75 L 218.43 92.92 C 220.91 97.16 219.80 102.81 218.48 107.36 L 217.90 107.50 C 216.09 112.77 210.89 115.97 205.95 117.92 C 200.26 120.28 194.04 119.73 188.03 119.76 C 185.71 119.75 183.37 119.57 181.12 118.95 C 175.69 117.64 170.41 115.42 166.05 111.87 C 165.36 111.24 164.68 110.61 163.99 109.99 C 162.98 108.93 161.95 107.90 160.81 106.98 C 162.06 106.63 162.90 105.64 163.80 104.78 C 164.05 104.45 164.55 103.80 164.80 103.48 L 165.50 103.49 L 165.52 102.48 L 166.58 102.47 L 166.40 101.75 C 166.74 101.41 167.43 100.72 167.78 100.38 L 168.14 100.52 C 168.48 100.17 169.16 99.48 169.51 99.14 L 169.34 98.38 L 170.54 98.49 C 170.58 98.10 170.67 97.32 170.71 96.92 L 171.19 97.09 C 171.44 97.51 171.95 98.34 172.20 98.76 C 173.30 100.03 174.51 101.21 175.82 102.29 C 177.03 103.03 178.18 103.86 179.32 104.73 C 181.42 105.76 183.69 106.37 185.86 107.26 C 189.75 107.62 193.66 107.51 197.56 107.28 L 197.61 106.79 C 198.96 106.36 200.26 105.78 201.58 105.24 L 201.32 104.26 L 202.36 104.69 C 202.85 102.00 202.76 99.21 201.25 96.84 C 200.23 96.55 199.23 96.19 198.27 95.76 C 197.58 95.64 196.21 95.41 195.53 95.30 L 195.58 94.71 C 193.71 94.74 191.83 94.58 190.13 93.76 C 188.87 93.65 187.62 93.55 186.36 93.46 L 186.65 92.68 C 184.89 92.66 183.13 92.55 181.38 92.44 L 181.70 91.77 C 179.61 91.69 177.61 91.08 175.63 90.46 L 175.54 89.80 C 171.35 89.40 168.58 85.83 165.97 82.91 C 165.62 81.72 165.37 80.51 165.23 79.28 L 164.48 79.64 C 164.64 75.80 163.31 71.40 165.49 67.96 C 165.41 67.62 165.25 66.93 165.17 66.58 L 166.63 66.56 C 166.56 66.18 166.41 65.42 166.34 65.04 C 168.65 62.39 170.88 58.99 174.58 58.29 L 174.67 57.07 C 175.14 57.25 176.08 57.61 176.54 57.79 L 176.42 56.46 C 177.29 56.45 179.02 56.42 179.89 56.41 L 179.22 55.37 C 180.11 55.39 181.90 55.44 182.79 55.47 L 182.38 54.65 Z" />
<path fill="#ffffff" opacity="1.00" d=" M 244.20 54.61 C 249.73 54.22 255.27 54.28 260.81 54.50 L 260.16 55.45 C 261.72 55.41 263.29 55.38 264.85 55.37 L 264.11 56.44 C 264.96 56.43 266.66 56.40 267.51 56.39 L 267.38 57.65 C 267.92 57.52 269.00 57.26 269.53 57.13 L 269.40 58.66 C 269.86 58.56 270.80 58.36 271.27 58.26 L 271.45 59.19 C 272.94 59.37 273.71 60.20 273.77 61.67 C 274.17 61.52 274.98 61.20 275.38 61.04 L 275.35 62.57 L 276.65 62.38 L 276.27 63.39 L 277.37 63.52 L 277.58 64.56 L 278.23 64.41 C 278.93 65.40 279.41 66.47 279.68 67.63 L 280.30 67.31 C 280.76 68.28 281.24 69.24 281.72 70.20 C 282.95 72.19 283.81 74.41 283.72 76.79 L 284.47 76.29 C 284.59 78.47 284.69 80.65 284.67 82.83 L 285.44 82.13 C 285.43 85.58 285.44 89.03 285.38 92.48 L 284.68 92.41 C 284.65 94.12 284.57 95.83 284.49 97.55 L 283.79 97.38 C 283.52 101.98 280.64 105.84 278.23 109.58 L 277.87 109.54 C 277.54 109.88 276.87 110.55 276.54 110.89 L 276.64 111.28 C 276.32 111.55 275.67 112.07 275.35 112.34 C 272.57 114.71 269.42 116.68 265.96 117.89 C 264.91 118.24 263.88 118.60 262.84 118.97 C 256.39 120.17 249.56 120.18 243.11 118.98 C 242.08 118.61 241.06 118.25 240.03 117.90 C 236.97 117.01 234.31 115.22 231.70 113.46 C 230.79 112.64 229.91 111.80 228.98 111.02 C 228.33 110.24 227.69 109.45 227.08 108.64 L 226.63 108.63 C 226.14 107.60 225.65 106.56 225.18 105.53 L 224.17 105.32 C 224.25 104.85 224.43 103.92 224.51 103.45 L 223.06 103.38 C 223.15 103.05 223.32 102.38 223.40 102.05 C 222.60 100.95 222.18 99.71 222.15 98.32 L 221.53 98.59 C 221.42 96.84 221.32 95.08 221.31 93.32 L 220.58 93.68 C 220.56 88.82 219.78 83.79 221.25 79.08 C 221.37 77.84 221.48 76.60 221.59 75.36 L 222.21 75.82 C 222.02 74.20 222.50 72.94 223.65 72.03 C 223.50 71.68 223.20 70.99 223.05 70.64 L 224.59 70.58 C 224.52 70.11 224.36 69.17 224.28 68.71 L 225.26 68.55 C 225.62 67.42 226.11 66.34 226.75 65.33 L 227.73 65.60 L 227.29 64.52 L 228.55 64.57 L 228.35 63.27 L 229.65 63.62 L 229.39 62.10 L 230.68 62.75 L 230.31 61.30 L 231.66 61.66 L 231.41 60.90 C 231.84 60.53 232.72 59.78 233.16 59.40 C 233.52 59.45 234.23 59.55 234.59 59.60 L 234.59 58.18 C 235.10 58.30 236.13 58.53 236.64 58.64 L 236.50 57.03 C 237.02 57.20 238.08 57.54 238.61 57.71 L 238.45 56.33 C 239.30 56.36 241.01 56.42 241.87 56.46 L 241.20 55.30 C 242.13 55.34 243.98 55.44 244.91 55.49 L 244.20 54.61 M 245.22 67.59 L 245.62 68.14 C 243.37 69.31 241.75 71.29 240.16 73.20 C 239.26 75.20 238.54 77.28 238.25 79.46 L 237.64 79.38 C 237.47 84.47 237.49 89.56 237.67 94.65 L 238.37 94.36 C 238.44 95.09 238.58 96.53 238.65 97.25 C 240.09 100.68 242.23 103.85 245.41 105.89 L 245.47 106.14 C 246.64 106.42 247.78 106.77 248.91 107.20 C 254.62 108.11 261.82 106.98 264.77 101.37 L 265.59 101.57 C 265.50 101.11 265.30 100.19 265.21 99.73 L 266.57 99.45 C 266.47 98.99 266.27 98.06 266.17 97.60 L 267.29 97.65 C 267.37 95.93 267.52 94.22 267.66 92.51 L 268.37 92.61 C 268.24 88.48 268.26 84.35 268.39 80.22 L 267.55 80.72 C 267.46 79.26 267.39 77.80 267.35 76.33 L 266.13 76.43 C 266.21 76.05 266.37 75.29 266.46 74.92 C 266.15 74.27 265.52 72.97 265.21 72.33 L 264.67 72.77 C 263.96 71.71 263.50 70.57 263.28 69.33 C 262.85 69.49 262.00 69.79 261.57 69.94 L 261.62 68.69 C 260.27 68.21 258.94 67.68 257.56 67.28 L 257.70 66.60 C 254.57 66.54 251.44 66.56 248.32 66.60 L 248.49 67.42 C 247.67 67.46 246.04 67.55 245.22 67.59 Z" />
<path fill="#ffffff" opacity="1.00" d=" M 375.24 54.61 C 381.66 54.24 388.11 54.19 394.52 54.65 L 394.30 55.41 C 395.67 55.45 397.06 55.50 398.44 55.58 L 398.40 56.34 C 400.36 56.38 402.11 57.35 403.75 58.35 C 404.70 58.82 405.67 59.27 406.66 59.70 L 406.45 60.19 C 408.67 61.11 410.14 63.11 411.88 64.68 C 411.52 65.97 411.29 67.49 409.68 67.77 L 409.57 68.58 L 408.31 68.54 L 408.74 69.73 L 407.26 69.43 L 407.77 70.74 L 406.44 70.45 L 406.44 71.73 L 405.34 71.36 L 405.67 72.66 L 404.39 72.33 L 404.66 73.59 L 403.39 73.44 L 403.47 74.75 C 402.90 74.71 401.74 74.64 401.17 74.60 C 400.97 74.14 400.58 73.22 400.39 72.76 C 400.10 72.50 399.52 71.99 399.22 71.73 C 397.95 70.86 396.68 70.00 395.37 69.21 L 395.49 68.16 C 395.03 68.36 394.12 68.75 393.66 68.94 L 393.83 67.69 C 392.96 67.62 391.21 67.48 390.34 67.40 L 390.76 66.61 C 386.94 66.44 383.11 66.43 379.30 66.62 L 379.53 67.39 C 378.75 67.42 377.20 67.50 376.42 67.54 L 376.61 68.58 L 375.39 68.56 L 375.45 69.52 L 374.22 69.54 L 374.95 71.04 L 373.65 70.09 C 373.65 71.78 373.65 73.47 373.63 75.17 C 374.68 75.52 375.42 76.20 375.86 77.23 C 377.39 77.73 378.91 78.27 380.49 78.66 L 380.45 79.33 C 382.20 79.37 383.97 79.47 385.73 79.58 L 385.30 80.37 C 387.06 80.36 388.82 80.48 390.58 80.59 L 390.32 81.33 C 392.08 81.38 393.86 81.51 395.63 81.64 L 395.30 82.42 C 396.18 82.39 397.96 82.35 398.84 82.33 L 398.23 83.29 C 399.85 83.24 401.49 83.47 402.97 84.19 C 404.91 85.08 406.59 86.40 408.25 87.74 C 409.15 88.86 410.07 89.97 411.02 91.06 C 411.39 92.25 411.65 93.47 411.81 94.71 L 412.44 94.30 C 412.72 97.84 413.08 101.48 411.98 104.93 C 411.25 107.06 410.23 109.10 408.78 110.83 C 408.57 111.11 408.16 111.65 407.96 111.93 C 407.28 112.58 406.62 113.25 405.98 113.92 C 404.97 114.59 403.98 115.25 402.96 115.89 C 401.69 116.70 400.37 117.41 398.94 117.85 C 393.28 120.32 387.02 119.71 381.01 119.77 C 378.69 119.78 376.36 119.59 374.12 118.96 C 372.79 118.62 371.47 118.30 370.15 117.95 C 368.44 117.31 366.78 116.57 365.13 115.82 C 363.37 114.95 361.68 113.97 360.09 112.82 C 357.70 111.10 355.68 108.94 353.74 106.75 L 355.42 106.56 L 355.44 105.76 C 355.77 105.42 356.43 104.72 356.76 104.38 L 357.56 104.55 L 357.36 103.34 L 358.57 103.54 L 358.40 102.76 C 358.74 102.41 359.43 101.73 359.77 101.38 L 360.57 101.58 L 360.32 100.71 C 360.64 100.37 361.27 99.67 361.58 99.32 L 362.12 99.49 C 362.69 98.65 363.26 97.80 363.85 96.96 C 365.40 99.43 367.47 101.53 369.81 103.26 C 371.00 103.78 371.98 104.65 372.95 105.51 C 373.28 105.42 373.95 105.23 374.29 105.14 L 374.38 106.23 C 375.91 106.31 377.43 106.56 378.83 107.24 C 384.06 107.75 389.59 107.95 394.30 105.22 C 395.56 103.10 395.63 100.67 395.40 98.28 L 394.36 98.64 L 394.58 97.50 L 393.42 97.53 L 393.41 96.35 C 393.10 96.37 392.47 96.40 392.16 96.42 C 390.82 95.85 389.48 95.32 388.15 94.74 C 386.61 94.63 385.07 94.50 383.54 94.38 L 383.59 93.70 C 381.87 93.63 380.16 93.49 378.45 93.35 L 378.65 92.75 C 375.69 92.76 372.86 91.87 370.12 90.84 C 367.02 89.96 364.21 88.28 361.68 86.32 C 361.42 86.09 360.90 85.62 360.64 85.39 C 359.97 84.46 359.47 83.46 359.15 82.37 L 358.11 82.52 C 358.24 82.01 358.51 80.99 358.64 80.47 L 357.53 80.53 C 357.46 75.70 356.42 70.51 358.69 66.01 C 359.37 64.95 359.87 63.64 361.17 63.17 C 361.40 62.03 362.09 61.38 363.24 61.21 C 363.50 60.02 364.27 59.34 365.58 59.17 L 365.67 58.19 C 366.15 58.31 367.11 58.53 367.60 58.64 L 367.61 57.12 C 368.10 57.27 369.08 57.57 369.57 57.72 L 369.46 56.34 C 370.31 56.37 372.02 56.43 372.88 56.46 L 372.19 55.30 C 373.11 55.35 374.95 55.45 375.87 55.50 L 375.24 54.61 Z" />
<path fill="#ffffff" opacity="1.00" d=" M 433.79 55.44 L 433.28 54.60 C 439.44 54.24 445.63 54.20 451.79 54.65 L 451.13 55.48 C 452.07 55.45 453.95 55.38 454.89 55.35 L 454.05 56.41 C 454.99 56.41 456.86 56.40 457.79 56.40 L 457.30 57.75 C 457.85 57.57 458.96 57.20 459.51 57.02 L 459.35 58.61 C 459.84 58.53 460.81 58.38 461.30 58.31 L 461.47 59.19 C 463.37 60.11 465.26 61.46 465.82 63.63 L 466.68 63.27 L 466.41 64.50 C 466.76 64.61 467.47 64.82 467.82 64.93 L 467.38 66.03 C 468.49 66.98 468.95 68.25 468.75 69.84 L 469.65 69.22 C 469.63 70.72 469.61 72.21 469.58 73.71 L 470.38 73.37 C 470.59 84.46 470.20 95.57 470.65 106.66 L 471.61 106.38 L 471.50 107.16 C 471.81 107.44 472.45 108.00 472.77 108.28 C 473.51 108.35 475.00 108.51 475.74 108.59 C 475.61 108.06 475.33 107.02 475.20 106.49 L 476.48 106.54 L 476.46 105.75 C 476.79 105.40 477.44 104.71 477.77 104.37 L 478.55 104.56 L 478.35 103.35 L 479.56 103.54 L 479.36 102.33 L 480.58 102.57 L 480.39 101.77 C 480.73 101.42 481.42 100.73 481.77 100.38 L 482.55 100.58 L 482.34 99.38 L 483.55 99.51 L 483.52 98.23 C 484.06 98.25 485.14 98.30 485.68 98.32 C 487.21 100.15 488.95 101.81 490.79 103.35 C 491.73 103.81 492.68 104.26 493.64 104.71 L 493.50 105.62 C 493.95 105.50 494.84 105.28 495.29 105.16 L 495.39 106.22 C 496.91 106.31 498.44 106.56 499.82 107.25 C 503.75 107.66 507.70 107.47 511.65 107.28 L 511.49 106.59 C 515.43 106.54 517.42 102.22 516.40 98.74 C 516.09 98.44 515.47 97.83 515.16 97.52 L 514.42 97.52 L 514.41 96.35 C 514.10 96.36 513.47 96.40 513.16 96.42 C 511.82 95.85 510.47 95.31 509.15 94.74 C 507.60 94.63 506.07 94.50 504.54 94.38 L 504.58 93.70 C 502.86 93.63 501.16 93.49 499.45 93.35 L 499.65 92.75 C 496.68 92.76 493.86 91.86 491.12 90.85 C 488.02 89.96 485.24 88.28 482.69 86.36 C 480.93 84.32 478.78 82.20 479.26 79.23 L 478.34 79.78 C 478.31 75.91 478.27 72.04 478.45 68.17 L 479.29 68.81 C 479.25 65.63 481.47 62.61 484.20 61.16 C 484.54 60.01 485.34 59.35 486.60 59.16 L 486.66 58.19 C 487.14 58.30 488.09 58.53 488.57 58.65 L 488.64 57.10 C 489.12 57.26 490.09 57.58 490.57 57.74 L 490.44 56.34 C 491.29 56.37 493.00 56.43 493.85 56.46 L 493.21 55.30 C 494.12 55.35 495.94 55.44 496.86 55.49 L 496.25 54.61 C 502.53 54.17 508.82 54.38 515.11 54.44 C 516.63 54.34 517.86 55.43 519.27 55.83 L 519.42 56.31 C 521.35 56.43 523.11 57.29 524.73 58.30 C 525.57 58.76 526.43 59.20 527.30 59.61 C 528.25 60.35 529.28 61.06 529.95 62.10 C 530.96 62.94 531.96 63.79 532.95 64.67 C 532.55 66.02 532.21 67.59 530.51 67.78 L 530.78 68.71 L 529.32 68.37 L 529.84 69.66 L 528.38 69.38 L 528.66 70.87 L 527.51 70.30 L 527.51 71.60 L 526.25 71.57 L 526.69 72.66 L 525.37 72.35 L 525.65 73.61 L 524.36 73.45 L 524.39 75.03 C 522.92 74.70 521.48 74.11 521.13 72.45 L 520.63 72.68 L 520.40 71.65 L 519.38 71.37 L 519.59 70.76 C 518.46 70.31 517.35 69.83 516.25 69.31 L 516.55 68.16 C 516.08 68.35 515.14 68.73 514.67 68.92 L 514.80 67.67 C 513.94 67.61 512.22 67.48 511.35 67.42 L 511.75 66.61 C 507.58 66.37 503.42 66.51 499.25 66.65 L 499.51 67.95 C 498.98 67.78 497.93 67.45 497.40 67.28 L 497.66 68.73 L 496.37 68.35 L 496.56 69.58 L 495.24 69.45 L 495.94 70.96 L 494.65 70.10 C 494.66 71.82 494.65 73.54 494.63 75.26 C 495.73 75.47 496.48 76.12 496.86 77.23 C 498.44 77.76 500.01 78.32 501.65 78.68 L 501.30 79.34 C 503.52 79.29 505.82 79.36 507.89 80.31 C 509.11 80.43 510.34 80.54 511.58 80.63 L 511.32 81.36 C 513.01 81.40 514.72 81.46 516.43 81.54 C 516.42 81.75 516.41 82.16 516.40 82.37 C 517.75 82.42 519.11 82.47 520.47 82.55 L 520.34 83.18 C 521.56 83.38 522.75 83.71 523.92 84.17 C 527.14 85.70 530.02 88.05 531.88 91.13 C 534.16 95.33 534.22 100.42 532.98 104.95 C 532.23 107.07 531.21 109.09 529.86 110.90 C 528.97 111.98 527.99 112.99 526.93 113.90 C 524.81 115.59 522.46 116.97 519.92 117.90 C 516.42 119.19 512.73 119.92 508.99 119.77 C 504.37 119.63 499.63 120.21 495.12 118.96 C 493.78 118.62 492.47 118.30 491.15 117.96 C 489.44 117.32 487.77 116.57 486.14 115.76 C 484.36 114.98 482.71 113.95 481.12 112.85 C 480.90 112.54 480.45 111.93 480.23 111.63 L 478.65 111.50 C 478.18 113.98 479.40 117.42 477.04 119.16 C 471.95 120.00 466.56 120.32 461.64 118.50 L 461.47 117.88 C 458.31 117.20 456.32 114.22 455.25 111.38 L 453.98 111.55 C 452.51 114.78 448.99 116.31 445.98 117.78 C 444.91 118.18 443.84 118.58 442.79 118.99 C 436.36 120.10 429.22 120.68 423.10 118.00 C 421.01 117.20 419.21 115.85 417.59 114.34 C 415.81 112.04 414.10 109.47 414.19 106.43 L 413.65 106.50 C 413.61 104.43 413.58 102.35 413.55 100.28 L 414.31 100.67 C 414.33 99.27 414.38 97.86 414.46 96.46 L 415.16 96.55 C 415.71 93.12 418.76 90.80 421.49 89.04 L 421.73 88.21 C 422.20 88.29 423.12 88.46 423.59 88.54 L 423.58 87.12 C 423.93 87.19 424.64 87.32 425.00 87.39 C 426.00 86.87 427.04 86.41 428.11 86.01 C 429.91 85.50 431.78 85.27 433.67 85.32 L 433.38 84.60 C 435.15 84.47 436.92 84.36 438.70 84.35 L 438.38 83.70 C 441.86 83.51 445.16 82.02 448.69 82.33 L 448.30 81.55 C 450.04 81.46 451.78 81.37 453.53 81.36 C 453.47 78.64 453.38 75.93 453.34 73.21 L 451.93 73.43 C 452.16 72.96 452.60 72.01 452.82 71.53 L 451.90 71.55 C 450.94 69.88 449.50 68.58 448.10 67.29 C 447.76 67.40 447.07 67.63 446.72 67.75 L 446.72 66.61 C 443.23 66.28 439.74 66.35 436.26 66.65 L 436.43 67.83 C 436.06 67.70 435.32 67.45 434.95 67.32 C 433.98 68.24 433.00 69.14 431.85 69.82 C 431.44 70.85 430.74 71.50 429.73 71.75 C 429.39 73.36 428.78 74.90 428.25 76.46 L 426.47 76.64 L 426.72 75.59 C 425.84 75.60 424.10 75.63 423.23 75.64 L 423.78 74.64 C 422.35 74.59 420.92 74.52 419.49 74.43 L 419.76 73.67 C 418.89 73.60 417.16 73.46 416.29 73.39 L 416.64 72.31 C 416.06 72.48 414.92 72.81 414.34 72.97 C 414.36 71.47 414.42 69.97 414.50 68.47 L 415.75 68.48 C 415.60 68.05 415.31 67.18 415.16 66.74 L 416.21 66.62 C 416.63 65.22 417.57 64.13 418.62 63.16 L 418.33 62.54 L 419.48 62.46 L 419.59 61.29 L 420.56 61.72 L 420.47 60.80 C 422.03 59.81 423.54 58.74 425.04 57.67 C 426.56 57.00 428.10 56.24 429.82 56.31 L 429.32 55.48 C 430.80 55.45 432.29 55.43 433.79 55.44 M 443.30 92.68 L 443.70 93.46 C 441.91 93.58 440.12 93.68 438.33 93.67 L 438.63 94.53 C 437.79 94.56 436.12 94.62 435.28 94.65 L 435.50 95.77 C 435.04 95.66 434.10 95.44 433.64 95.33 L 433.24 96.93 C 432.89 96.79 432.19 96.51 431.85 96.37 C 431.57 97.51 431.23 98.63 430.83 99.73 C 430.78 100.69 430.68 102.62 430.63 103.59 L 431.66 103.82 C 431.59 104.23 431.46 105.06 431.39 105.47 L 432.60 105.36 L 432.50 106.31 C 434.27 106.99 436.05 107.64 437.84 108.28 C 438.78 108.29 440.66 108.31 441.60 108.32 L 441.52 107.75 C 446.85 107.84 451.77 104.37 453.30 99.24 C 453.43 96.62 453.47 94.01 453.54 91.39 C 451.79 91.56 450.04 91.67 448.29 91.72 L 448.69 92.46 C 446.89 92.58 445.09 92.67 443.30 92.68 Z" />
<path fill="#ffffff" opacity="1.00" d=" M 597.26 54.56 C 602.11 54.76 607.60 53.15 612.04 55.56 C 612.41 55.43 613.16 55.18 613.53 55.05 L 613.35 56.63 C 613.90 56.50 615.02 56.24 615.58 56.10 L 615.31 57.62 C 615.83 57.50 616.87 57.26 617.39 57.14 L 617.42 58.14 C 619.86 59.12 621.76 61.25 622.88 63.60 L 623.89 63.59 C 623.75 64.07 623.46 65.04 623.32 65.52 C 624.37 65.59 625.43 65.66 626.49 65.73 C 626.46 65.20 626.39 64.16 626.36 63.64 L 627.24 63.60 C 627.47 63.24 627.92 62.53 628.15 62.18 C 628.60 61.17 629.35 60.52 630.43 60.21 L 630.43 59.38 L 631.67 59.60 L 631.36 58.81 C 632.30 58.31 633.23 57.77 634.14 57.18 C 635.29 56.68 636.50 56.36 637.76 56.20 L 637.53 55.00 C 637.88 55.13 638.59 55.41 638.95 55.54 C 643.43 53.25 648.83 54.69 653.70 54.56 L 653.18 55.33 C 654.75 55.02 655.98 55.44 656.87 56.56 C 657.31 56.44 658.18 56.19 658.62 56.07 L 658.38 57.67 C 658.77 57.59 659.54 57.43 659.93 57.35 C 661.69 58.84 663.75 60.13 664.81 62.27 C 665.06 62.50 665.56 62.97 665.81 63.21 C 666.72 64.95 667.87 66.71 667.71 68.78 L 668.52 68.35 C 668.61 70.53 668.66 72.71 668.65 74.89 L 669.41 74.08 C 669.50 88.98 669.36 103.89 669.54 118.79 C 663.74 118.76 657.95 118.68 652.15 118.84 C 652.43 104.32 652.14 89.80 652.39 75.28 L 651.68 75.59 C 651.59 72.47 649.29 70.20 647.10 68.29 C 646.75 68.40 646.06 68.63 645.72 68.75 L 645.72 67.61 C 642.15 67.26 638.58 67.46 635.03 67.69 L 636.06 68.50 C 634.83 68.86 633.62 69.23 632.42 69.61 L 632.61 70.53 L 631.46 70.38 L 631.47 71.50 L 630.73 71.49 C 630.48 71.82 629.99 72.49 629.74 72.83 C 629.07 74.14 628.40 75.46 627.63 76.71 C 627.57 77.43 627.46 78.88 627.40 79.60 L 626.61 79.29 C 626.88 92.47 626.56 105.66 626.85 118.84 C 621.05 118.68 615.25 118.77 609.45 118.78 C 609.51 103.96 609.79 89.11 609.35 74.29 L 608.27 74.37 C 608.36 73.99 608.56 73.23 608.65 72.85 C 607.05 71.07 605.46 69.18 603.22 68.20 L 603.86 67.64 C 600.31 67.43 596.76 67.30 593.23 67.66 L 593.44 68.99 C 592.97 68.81 592.04 68.45 591.57 68.27 L 591.31 69.83 C 590.95 69.73 590.23 69.52 589.87 69.42 C 589.03 71.30 587.48 72.69 586.15 74.19 C 585.04 76.53 584.35 79.04 584.28 81.63 L 583.62 81.27 C 583.87 93.79 583.58 106.32 583.84 118.84 C 578.12 118.67 572.39 118.78 566.67 118.77 C 566.74 114.98 566.75 111.19 566.67 107.40 L 573.14 107.00 L 566.70 106.60 C 566.69 105.53 566.67 103.41 566.67 102.34 L 567.51 102.60 C 566.64 98.89 566.69 95.09 566.66 91.31 L 567.37 91.70 C 567.13 79.55 567.53 67.39 567.24 55.24 C 572.26 55.45 577.30 55.33 582.34 55.33 C 582.34 58.85 582.56 62.37 582.65 65.89 C 583.04 65.83 583.82 65.71 584.21 65.65 C 584.63 64.49 585.12 63.36 585.69 62.26 L 586.16 62.66 C 586.72 61.14 587.74 59.75 589.34 59.22 C 589.53 58.93 589.91 58.34 590.11 58.04 C 590.75 57.84 592.03 57.43 592.67 57.22 L 592.64 56.02 C 593.13 56.23 594.11 56.65 594.59 56.86 L 594.29 55.55 C 595.19 55.51 597.00 55.43 597.90 55.39 L 597.26 54.56 Z" />
<path fill="#ffffff" opacity="1.00" d=" M 815.30 54.66 C 822.72 54.30 830.32 53.68 837.57 55.70 L 837.45 56.78 C 838.00 56.56 839.10 56.11 839.65 55.89 L 839.17 57.41 C 839.98 57.41 841.60 57.41 842.41 57.41 L 842.45 58.21 C 843.88 58.45 844.66 59.27 844.77 60.68 C 845.05 60.57 845.59 60.34 845.87 60.23 C 846.35 60.70 847.30 61.63 847.78 62.10 C 847.66 62.39 847.43 62.99 847.31 63.28 C 849.17 63.06 849.60 64.89 850.38 66.10 C 850.89 67.41 851.43 68.73 851.87 70.08 C 852.78 72.63 852.67 75.37 852.70 78.04 C 852.65 87.23 852.80 96.41 852.67 105.60 L 853.66 105.70 C 853.59 106.05 853.45 106.74 853.38 107.09 C 853.97 107.40 855.15 108.03 855.74 108.34 C 857.70 108.44 859.66 108.35 861.63 108.18 C 861.48 109.62 861.36 111.07 861.27 112.51 L 860.70 112.42 C 860.73 114.43 860.73 116.43 860.69 118.44 C 856.42 120.26 851.62 119.98 847.13 119.40 C 843.19 118.32 838.83 115.76 838.06 111.40 L 836.62 111.41 L 836.54 112.56 L 835.83 112.51 C 835.59 112.84 835.12 113.51 834.88 113.85 C 832.74 115.50 830.45 116.94 828.01 118.07 C 826.83 118.36 825.65 118.63 824.48 118.87 L 824.49 119.41 C 819.06 119.76 813.46 120.32 808.12 119.04 C 807.10 118.65 806.09 118.25 805.08 117.86 C 804.60 117.61 803.62 117.12 803.13 116.88 C 796.51 112.94 794.36 103.61 797.46 96.92 C 797.35 96.55 797.14 95.82 797.03 95.46 L 798.55 95.58 C 798.47 95.10 798.33 94.16 798.25 93.68 L 799.21 93.57 C 799.41 93.19 799.82 92.42 800.02 92.04 C 800.76 91.32 801.55 90.68 802.41 90.10 L 802.40 89.71 C 803.31 89.22 804.24 88.72 805.16 88.22 C 808.42 86.60 811.92 85.23 815.63 85.29 C 815.59 85.13 815.52 84.82 815.49 84.66 C 817.58 84.50 819.67 84.33 821.78 84.31 L 821.16 83.43 C 822.62 83.42 824.08 83.41 825.55 83.43 C 825.57 83.20 825.61 82.75 825.63 82.52 C 827.27 82.46 828.93 82.41 830.59 82.38 C 830.58 82.18 830.56 81.79 830.55 81.60 C 832.28 81.48 834.02 81.38 835.78 81.30 C 835.68 80.87 835.46 80.03 835.36 79.61 L 836.38 79.60 C 836.39 78.79 836.40 77.17 836.40 76.36 L 835.60 76.57 C 835.52 75.13 835.46 73.68 835.41 72.24 L 834.72 72.72 C 834.26 71.72 833.79 70.72 833.33 69.73 C 833.06 69.46 832.53 68.91 832.26 68.63 C 831.23 68.11 830.16 67.70 829.06 67.40 L 829.94 66.67 C 826.03 66.29 822.11 66.36 818.21 66.67 L 818.52 68.01 C 817.99 67.81 816.93 67.41 816.39 67.21 L 816.68 68.10 C 815.14 69.10 813.74 70.31 812.59 71.73 C 812.04 73.21 811.32 74.61 810.48 75.93 L 811.08 76.85 C 810.43 76.70 809.14 76.41 808.49 76.26 L 808.69 75.62 C 807.86 75.59 806.21 75.53 805.38 75.50 L 805.76 74.59 C 804.91 74.59 803.22 74.59 802.38 74.58 L 802.74 73.71 C 801.14 73.67 799.58 73.50 798.13 72.86 C 795.25 73.18 796.33 70.28 797.52 69.00 C 797.44 68.69 797.28 68.06 797.20 67.75 L 798.61 67.51 C 798.55 67.15 798.41 66.41 798.35 66.04 C 800.24 64.01 801.71 61.45 804.29 60.18 C 804.62 59.96 805.28 59.51 805.61 59.29 L 805.79 58.25 C 806.25 58.34 807.16 58.52 807.62 58.61 L 807.60 57.13 C 808.09 57.27 809.09 57.56 809.59 57.71 L 809.45 56.34 C 810.29 56.37 811.99 56.43 812.83 56.46 L 812.30 55.31 C 813.17 55.35 814.93 55.44 815.80 55.49 L 815.30 54.66 M 831.41 91.66 L 831.52 92.38 C 829.80 92.50 828.08 92.62 826.39 92.69 L 826.57 93.37 C 824.83 93.50 823.08 93.63 821.35 93.68 L 821.65 94.36 C 820.92 94.44 819.48 94.58 818.75 94.66 C 817.34 95.44 815.89 96.16 814.43 96.81 L 814.70 97.75 L 813.64 97.28 C 813.00 100.47 813.26 103.70 814.84 106.58 C 815.20 106.47 815.93 106.25 816.29 106.14 L 816.39 107.12 C 817.58 107.42 818.75 107.78 819.92 108.20 C 821.48 108.24 823.05 108.29 824.63 108.35 L 824.41 107.61 C 825.67 107.50 826.93 107.40 828.21 107.30 C 830.57 106.11 832.66 104.47 834.37 102.44 C 835.58 99.89 835.90 97.07 835.70 94.26 L 836.32 94.76 C 836.33 93.93 836.37 92.26 836.38 91.43 C 834.73 91.55 833.06 91.64 831.41 91.66 Z" />
<path fill="#ffffff" opacity="1.00" d=" M 290.24 55.24 C 295.75 55.42 301.26 55.42 306.76 55.24 C 306.47 68.71 306.87 82.19 306.64 95.67 L 307.32 95.35 C 307.41 97.11 307.55 98.86 307.67 100.63 L 308.76 100.76 C 308.65 101.10 308.43 101.77 308.32 102.11 C 309.36 103.07 310.41 104.02 311.60 104.79 L 311.49 105.62 C 311.95 105.50 312.87 105.27 313.32 105.15 L 313.34 106.27 C 317.10 106.63 320.87 106.63 324.63 106.29 L 324.34 105.69 C 327.07 104.79 329.43 102.94 330.80 100.40 L 331.64 100.49 C 331.52 100.04 331.27 99.14 331.14 98.69 L 332.33 98.67 C 332.38 97.86 332.48 96.24 332.53 95.43 L 333.33 95.64 C 333.55 82.19 333.56 68.73 333.42 55.27 C 339.14 55.41 344.86 55.38 350.58 55.30 C 350.44 76.46 350.50 97.63 350.65 118.80 C 345.52 118.74 340.39 118.70 335.26 118.83 C 335.27 116.00 335.21 113.16 335.32 110.33 L 334.74 110.66 C 334.56 109.15 334.18 106.14 334.00 104.63 C 334.17 106.99 333.66 109.31 332.43 111.29 C 331.60 112.19 330.77 113.07 329.99 114.00 C 328.23 115.66 326.21 117.02 324.02 118.07 C 322.81 118.38 321.60 118.66 320.39 118.91 L 320.60 119.42 C 315.14 119.71 309.51 120.36 304.14 119.03 C 302.76 118.47 301.35 117.98 299.94 117.51 C 295.78 114.68 291.37 110.76 291.17 105.35 L 290.55 105.60 C 289.87 88.83 290.64 72.02 290.24 55.24 Z" />
<path fill="#ffffff" opacity="1.00" d=" M 677.51 55.30 C 683.26 55.35 689.01 55.45 694.76 55.24 C 694.59 76.44 694.68 97.65 694.84 118.85 C 689.05 118.68 683.25 118.76 677.46 118.79 C 677.58 97.63 677.64 76.46 677.51 55.30 Z" />
<path fill="#ffffff" opacity="1.00" d=" M 773.51 55.31 C 779.23 55.36 784.95 55.43 790.67 55.27 C 790.51 76.45 790.59 97.64 790.74 118.83 C 784.98 118.70 779.22 118.75 773.46 118.80 C 773.58 97.64 773.64 76.47 773.51 55.31 Z" />
<path fill="#ffffff" opacity="1.00" d=" M 42.49 68.50 C 45.83 68.28 49.17 68.27 52.51 68.50 L 52.45 69.25 C 53.46 69.57 54.41 70.04 55.28 70.64 C 55.54 70.93 56.04 71.50 56.29 71.78 C 60.75 77.03 59.03 85.74 52.97 88.99 C 51.52 89.62 49.95 89.76 48.38 89.71 L 48.63 90.40 L 46.20 90.42 L 46.71 89.70 C 43.48 90.31 40.79 88.46 38.66 86.28 C 38.17 85.49 37.67 84.71 37.16 83.94 C 35.92 80.85 35.88 77.19 37.17 74.11 C 37.69 73.34 38.22 72.57 38.74 71.80 C 38.98 71.51 39.44 70.93 39.68 70.65 C 40.58 70.03 41.55 69.54 42.58 69.19 L 42.49 68.50 Z" />
<path fill="#ffffff" opacity="1.00" d=" M 88.45 68.34 C 89.78 68.35 91.10 68.38 92.43 68.43 L 93.00 66.53 L 93.55 68.36 C 95.40 68.26 97.26 68.40 99.01 69.05 C 99.74 69.65 100.36 70.35 100.89 71.13 C 101.97 71.57 102.64 72.39 102.89 73.58 L 103.88 73.69 C 103.79 74.01 103.63 74.66 103.55 74.98 C 105.00 77.39 105.01 80.61 103.58 83.03 C 103.63 83.34 103.73 83.95 103.77 84.25 L 102.93 84.53 C 102.17 86.46 100.46 87.69 98.91 88.95 C 97.48 89.56 95.93 89.73 94.39 89.75 L 94.53 90.43 C 93.78 90.40 92.27 90.35 91.52 90.33 L 91.62 89.78 C 90.07 90.02 88.88 89.58 88.03 88.46 C 87.71 88.56 87.06 88.76 86.73 88.86 L 86.57 87.53 L 85.36 87.61 L 85.56 86.80 C 85.20 86.45 84.49 85.76 84.13 85.41 L 83.10 85.33 C 83.24 84.87 83.51 83.94 83.64 83.48 L 82.33 83.54 C 82.29 80.50 82.29 77.45 82.40 74.42 L 83.73 74.51 C 83.59 74.05 83.29 73.12 83.14 72.65 L 84.58 72.62 L 84.26 71.64 L 85.36 71.36 L 85.65 70.27 L 86.63 70.57 L 86.67 69.11 C 87.14 69.26 88.08 69.56 88.55 69.71 L 88.45 68.34 Z" />
</g>
</svg>
