<?xml version="1.0" encoding="UTF-8"?>
<!DOCTYPE svg PUBLIC "-//W3C//DTD SVG 1.1//EN" "http://www.w3.org/Graphics/SVG/1.1/DTD/svg11.dtd">
<!-- Creator: CorelDRAW 2021 (64-Bit) -->
<svg xmlns="http://www.w3.org/2000/svg" xml:space="preserve" width="10in" height="10in" version="1.1" style="shape-rendering:geometricPrecision; text-rendering:geometricPrecision; image-rendering:optimizeQuality; fill-rule:evenodd; clip-rule:evenodd"
viewBox="0 0 10000 10000"
 xmlns:xlink="http://www.w3.org/1999/xlink"
 xmlns:xodm="http://www.corel.com/coreldraw/odm/2003">
 <defs>
  <style type="text/css">
   <![CDATA[
    .fil0 {fill:#8A4BF0;fill-rule:nonzero}
   ]]>
  </style>
 </defs>
 <g id="__x0023_Layer_x0020_1">
  <metadata id="CorelCorpID_0Corel-Layer"/>
  <g id="_2198540899312">
   <g>
    <path class="fil0" d="M3950.78 2035.45c338.63,10.48 666.24,121.88 1000.47,172.07 849.34,140.64 1673.89,391.58 2508.89,595.65 284.04,57.91 533.33,272.45 604.48,557.05 60.66,315.48 -1.66,639.77 42.46,956.9 164.91,29.78 350.21,44.67 474.31,172.63 363.46,319.89 345.8,965.72 -34.19,1265.2 -121.9,102.03 -285.69,113.61 -435.15,138.98 -43.57,288.44 -0.56,580.75 -29.23,870.31 -44.69,346.37 -354.64,624.34 -699.9,650.26 -634.8,39.15 -1268.52,103.14 -1904.43,120.22 -942.57,27.58 -1882.37,-54.59 -2821.07,-123.54 -342.49,-31.98 -651.35,-316.57 -685.54,-663.48 -26.47,-303.34 -3.86,-607.78 -12.13,-911.67 -144.5,-12.7 -300.57,-7.72 -427.99,-88.8 -199.09,-119.13 -308.3,-339.74 -355.17,-559.26l0 -218.95c33.63,-224.47 133.46,-453.35 329.25,-581.86 127.42,-88.24 289.01,-83.83 433.51,-126.31 72.79,-318.22 -21.51,-655.21 51.3,-975.1 54.59,-204.62 245.97,-357.94 456.1,-371.73 477.08,-22.61 955.81,12.13 1432.88,-13.79 295.07,-10.48 428.54,-452.26 193.03,-624.32 -66.72,-72.26 -232.19,-129.06 -121.88,-240.46zm-1451.62 2026.31l0 0c-0.56,624.89 0.55,1250.32 2.75,1875.2 -8.82,170.97 122.99,342.49 298.37,352.96 323.75,12.13 648.06,-0.55 971.8,4.97 23.15,258.11 174.29,488.1 393.79,623.23 455.57,290.1 1060.04,300.57 1544.28,73.35 268.04,-131.26 495.27,-384.97 507.96,-695.49 321.54,-5.5 643.63,2.77 965.17,-2.75 185.31,2.75 348.01,-167.11 333.67,-352.98 0.55,-646.95 8.27,-1293.88 0,-1940.28 2.2,-195.8 -192.48,-344.71 -380.56,-326.51 -462.19,-1.09 -924.35,-3.3 -1386.54,1.11 -228.33,-10.48 -325.41,224.47 -448.94,372.83 -104.24,156.64 -347.46,187.51 -489.76,65.63 -114.72,-107.55 -169.31,-263.63 -285.69,-370.07 -124.09,-88.8 -284.59,-68.4 -428.54,-71.71 -423.02,6.07 -846.04,-6.07 -1268.52,5.52 -196.33,3.86 -352.42,190.83 -329.25,384.97z"/>
   </g>
   <path class="fil0" d="M3516.17 4429.62c345.8,-178.69 818.46,32.55 902.85,414.2 100.37,356.28 -174.83,747.31 -540.51,783.17 -309.4,45.78 -635.36,-164.35 -705.4,-472.1 -78.87,-283.49 75.56,-605.58 343.06,-725.27z"/>
   <path class="fil0" d="M6095.11 4404.26c356.28,-143.41 801.36,108.64 853.77,490.3 69.49,338.1 -196.35,690.52 -536.09,731.34 -346.91,61.77 -715.89,-216.2 -734.63,-571.39 -30.89,-280.17 154.41,-557.03 416.95,-650.24z"/>
  </g>
 </g>
</svg>
